<svg xmlns="http://www.w3.org/2000/svg" version="1.1" xmlns:xlink="http://www.w3.org/1999/xlink" xmlns:svgjs="http://svgjs.com/svgjs" width="1440" height="560" preserveAspectRatio="none" viewBox="0 0 1440 560"><g mask="url(&quot;#SvgjsMask1110&quot;)" fill="none"><rect width="1440" height="560" x="0" y="0" fill="url(#SvgjsRadialGradient1111)"></rect><path d="M 0,164 C 57.6,132.6 172.8,-7.8 288,7 C 403.2,21.8 460.8,232.6 576,238 C 691.2,243.4 748.8,39 864,34 C 979.2,29 1036.8,209.2 1152,213 C 1267.2,216.8 1382.4,85 1440,53L1440 560L0 560z" fill="rgba(18, 140, 126, 1)"></path><path d="M 0,328 C 57.6,365.4 172.8,519.2 288,515 C 403.2,510.8 460.8,319.4 576,307 C 691.2,294.6 748.8,440.8 864,453 C 979.2,465.2 1036.8,354.2 1152,368 C 1267.2,381.8 1382.4,491.2 1440,522L1440 560L0 560z" fill="rgba(7, 94, 84, 1)"></path></g><defs><mask id="SvgjsMask1110"><rect width="1440" height="560" fill="#ffffff"></rect></mask><radialGradient cx="50%" cy="50%" r="772.53" gradientUnits="userSpaceOnUse" id="SvgjsRadialGradient1111"><stop stop-color="#0e2a47" offset="0"></stop><stop stop-color="rgba(18, 140, 126, 1)" offset="1"></stop></radialGradient></defs></svg>